{"title":"National.Geographic.Channel.Carrier.HAVC.720x480.MPEG-4","uid":6416271,"size":4208272560,"categoryP":"video","categoryS":"hd___movies","magnet":"?xt=urn:btih:baa31f6cb7cc4dca917d7ac1edc7386d8e1e09fd&amp;dn=National.Geographic.Channel.Carrier.HAVC.720x480.MPEG-4&amp;tr=udp%3A%2F%2Ftracker.openbittorrent.com%3A80&amp;tr=udp%3A%2F%2Fopen.demonii.com%3A1337&amp;tr=udp%3A%2F%2Ftracker.coppersurfer.tk%3A6969&amp;tr=udp%3A%2F%2Fexodus.desync.com%3A6969","seeders":0,"leechers":2,"uploader":"dolami","files":10,"time":1306173569,"description":"\nVideo\nID                               : 1\nFormat                           : AVC\nFormat/Info                      : Advanced Video Codec\nCodec ID                         : avc1\nCodec ID/Info                    : Advanced Video Coding\nDuration                         : 47mn 26s\nBit rate mode                    : Variable\nBit rate                         : 1 100 Kbps\nMaximum bit rate                 : 2 811 Kbps\nWidth                            : 720 pixels\nHeight                           : 480 pixels\nDisplay aspect ratio             : 1.500\nFrame rate mode                  : Constant\nFrame rate                       : 25.000 fps\nStandard                         : NTSC\nBits/(Pixel*Frame)               : 0.127\nStream size                      : 373 MiB (92%)\nEncoded date                     : UTC 2009-04-14 23:56:01\nTagged date                      : UTC 2009-04-14 23:56:15\n\nAudio\nID                               : 2\nFormat                           : AAC\nFormat/Info                      : Advanced Audio Codec\nFormat version                   : Version 4\nFormat profile                   : LC\nFormat settings, SBR             : No\nCodec ID                         : 40\nDuration                         : 47mn 26s\nBit rate mode                    : Variable\nBit rate                         : 88.7 Kbps\nMaximum bit rate                 : 112 Kbps\nChannel(s)                       : 2 channels\nChannel positions                : L R\nSampling rate                    : 48.0 KHz\nResolution                       : 16 bits\nStream size                      : 30.1 MiB (7%)\nEncoded date                     : UTC 2009-04-14 23:56:12\nTagged date                      : UTC 2009-04-14 23:56:15\n\n","torrent":{"xt":"urn:btih:baa31f6cb7cc4dca917d7ac1edc7386d8e1e09fd","amp;dn":"National.Geographic.Channel.Carrier.HAVC.720x480.MPEG-4","amp;tr":["udp%3A%2F%2Ftracker.openbittorrent.com%3A80","udp%3A%2F%2Fopen.demonii.com%3A1337","udp%3A%2F%2Ftracker.coppersurfer.tk%3A6969","udp%3A%2F%2Fexodus.desync.com%3A6969"],"infoHash":"baa31f6cb7cc4dca917d7ac1edc7386d8e1e09fd","infoHashBuffer":{"type":"Buffer","data":[186,163,31,108,183,204,77,202,145,125,122,193,237,199,56,109,142,30,9,253]},"announce":[],"urlList":[]}}